<!-- icon666.com - MILLIONS vector ICONS FREE --><svg version="1.1" id="Capa_1" xmlns="http://www.w3.org/2000/svg" xmlns:xlink="http://www.w3.org/1999/xlink" x="0px" y="0px" viewBox="0 0 512.001 512.001" style="enable-background:new 0 0 512.001 512.001;" xml:space="preserve"><g><g><path d="M416.444,273.066c-36.129,0-66.65,24.389-76.017,57.562l-22.691-5.631l-11.844-29.77 c-0.814-2.047-2.487-3.632-4.574-4.335c-2.087-0.703-4.378-0.453-6.265,0.683l-7.912,4.767V282.44 c24.258-14.696,41.023-38.898,46.259-66.537c2.178,0.356,4.39,0.545,6.631,0.545c3.174,0,6.333-0.373,9.338-1.097 c18.483-4.321,31.392-20.627,31.392-39.653c0-18.833-12.756-35.104-30.995-39.56c-3.159-0.784-6.434-1.181-9.735-1.181 c-0.4,0-0.797,0.017-1.194,0.028C362.887,71.726,357.732,9.59,357.487,6.836C357.144,2.967,353.901,0,350.017,0h-154.56 c-21.477,0-32.898,14.48-37.094,24.622c-41.447,18.372-30.3,85.279-24.447,110.439c-0.92-0.062-1.844-0.104-2.775-0.104 c-3.344,0-6.635,0.403-9.72,1.185c-18.27,4.463-31.03,20.729-31.03,39.556c0,19.016,12.908,35.321,31.35,39.643 c3.062,0.735,6.225,1.107,9.4,1.107c2.239,0,4.448-0.188,6.622-0.543c5.239,27.649,22.001,51.846,46.248,66.526v13.909 l-7.908-4.764c-1.887-1.137-4.177-1.386-6.265-0.683c-2.087,0.703-3.76,2.288-4.574,4.335l-11.843,29.768l-70.976,17.613 c-38.792,9.621-65.885,44.253-65.885,84.22v77.671c0,4.142,3.358,7.5,7.5,7.5h423.033c4.142,0,7.5-3.358,7.5-7.5V426.83 c0-1.852-0.065-3.703-0.181-5.539c7.425-4.067,14.23-9.314,20.068-15.634c2.811-3.042,2.623-7.787-0.419-10.598 c-3.042-2.811-7.788-2.623-10.598,0.419c-12.084,13.079-29.222,20.581-47.018,20.581c-35.287,0-63.997-28.708-63.997-63.997 s28.708-63.997,63.997-63.997s63.996,28.708,63.996,63.997c0,7.066-1.143,14.006-3.396,20.628 c-1.334,3.921,0.763,8.182,4.684,9.516c3.92,1.333,8.182-0.763,9.516-4.684c2.784-8.181,4.195-16.747,4.195-25.46 C495.441,308.503,460.004,273.066,416.444,273.066z M125.202,200.746c-11.665-2.734-19.812-13.034-19.812-25.048 c0-11.893,8.056-22.167,19.65-24.999c1.943-0.492,3.996-0.741,6.1-0.741c1.653,0,3.28,0.153,4.87,0.456v46.844 c0,1.239,0.023,2.483,0.069,3.721C132.544,201.663,128.8,201.608,125.202,200.746z M295.222,308.985l9.495,23.865l-41.513,42.761 l-17.872-36.568L295.222,308.985z M254.414,391.786c0.084,0.172,0.185,0.333,0.281,0.497l-5.975,10.356h-26.279l-5.979-10.358 c0.096-0.163,0.196-0.323,0.28-0.495l18.836-38.541L254.414,391.786z M199.011,305.377v-15.493 c0.024,0.009,0.048,0.018,0.071,0.027c0.229,0.09,0.46,0.172,0.69,0.261c0.415,0.158,0.83,0.316,1.248,0.467 c11.006,4.065,22.736,6.189,34.561,6.189c10.798,0,21.521-1.775,31.689-5.179c0.092-0.366,4.585-1.648,4.871-1.761v15.491 l-36.563,22.029L199.011,305.377z M340.032,149.959c2.085-0.002,4.146,0.247,6.15,0.744c11.528,2.817,19.58,13.095,19.58,24.995 c0,12.021-8.145,22.32-19.856,25.058c-1.905,0.459-3.881,0.692-5.874,0.692c-1.681,0-3.336-0.161-4.956-0.475 c0.045-1.236,0.076-2.475,0.076-3.715v-46.841C336.746,150.112,338.377,149.959,340.032,149.959z M151.423,205.643 c-0.274-2.743-0.413-5.563-0.413-8.385v-48.375l16.383-2.559c3.651-0.57,6.342-3.715,6.342-7.41v-27.884 c10.199,0.071,20.389,0.286,30.387,0.643c4.126,0.153,7.615-3.088,7.763-7.228c0.148-4.14-3.088-7.615-7.228-7.763 c-12.626-0.451-25.554-0.679-38.422-0.679c-4.142,0-7.5,3.358-7.5,7.5v28.991l-9.632,1.504c-2.06-8.509-5.382-24.529-5.979-41.384 c-1.087-30.684,6.885-49.264,23.695-55.224c2.323-0.824,4.079-2.683,4.721-5.063C172.047,30.552,177.027,15,195.457,15h147.444 c0.608,18.117,0.205,69.349-19.812,119.075l-9.019-1.51v-18.832c0-3.602-2.561-6.695-6.1-7.368 c-1.113-0.211-24.783-5.214-70.884-8.208c-4.134-0.267-7.702,2.865-7.971,6.998c-0.269,4.134,2.865,7.702,6.999,7.971 c32.628,2.119,52.635,5.323,62.955,6.95v18.838c0,3.664,2.647,6.792,6.261,7.397l14.82,2.482v48.465 c0,2.821-0.139,5.64-0.413,8.388c-0.002,0.021-0.005,0.041-0.007,0.062c-2.751,27.787-19.078,52.392-43.685,65.829 c-12.327,6.733-26.32,10.292-40.465,10.292c-14.157,0-28.152-3.562-40.478-10.304C170.489,258.094,154.161,233.47,151.423,205.643 z M175.933,308.985l49.889,30.058l-17.872,36.568l-41.512-42.761L175.933,308.985z M201.285,497H99.074v-34.009 c0-4.142-3.358-7.5-7.5-7.5s-7.5,3.358-7.5,7.5V497H31.559v-70.171c0-33.057,22.409-61.703,54.497-69.662l66.953-16.615 l40.561,41.781c0.154,0.443,0.335,0.88,0.575,1.295l17.47,30.26c0.477,0.827,1.103,1.534,1.827,2.11L201.285,497z M416.444,431.059c7.908,0,15.704-1.218,23.148-3.507V497h-52.511v-34.009c0-4.142-3.358-7.5-7.5-7.5s-7.5,3.358-7.5,7.5V497 H269.877l-3.056-24.024c-0.615-4.096-4.43-6.917-8.53-6.304c-4.096,0.615-6.918,4.434-6.304,8.53l2.722,21.797h-38.257 l11.912-79.361h14.433l3.796,25.289c0.559,3.719,3.758,6.388,7.408,6.388c0.37,0,0.745-0.027,1.123-0.084 c4.096-0.615,6.918-4.434,6.304-8.53l-3.708-24.702c0.724-0.577,1.35-1.284,1.828-2.112l17.46-30.26 c0.238-0.413,0.419-0.846,0.572-1.287l40.566-41.786l19.602,4.865c-0.184,2.193-0.3,4.405-0.3,6.644 C337.448,395.621,372.886,431.059,416.444,431.059z"></path></g></g><g><g><path d="M457.529,322.595c-2.929-2.929-7.678-2.929-10.607,0l-43.026,43.027l-11.682-11.681c-2.929-2.929-7.678-2.929-10.606,0 c-2.929,2.929-2.929,7.678,0,10.606l16.985,16.984c1.464,1.464,3.384,2.197,5.303,2.197c1.919,0,3.839-0.732,5.303-2.197 l48.33-48.33C460.458,330.272,460.458,325.523,457.529,322.595z"></path></g></g><g><g><path d="M193.194,157.998c-4.142,0-7.5,3.358-7.5,7.5v8.201c0,4.142,3.358,7.5,7.5,7.5s7.5-3.358,7.5-7.5v-8.201 C200.694,161.356,197.336,157.998,193.194,157.998z"></path></g></g><g><g><path d="M280.808,157.998c-4.142,0-7.5,3.358-7.5,7.5v8.201c0,4.142,3.358,7.5,7.5,7.5s7.5-3.358,7.5-7.5v-8.201 C288.308,161.356,284.95,157.998,280.808,157.998z"></path></g></g></svg>