<!-- icon666.com - MILLIONS vector ICONS FREE --><svg clip-rule="evenodd" fill-rule="evenodd" stroke-linejoin="round" stroke-miterlimit="2" viewBox="0 0 512 512" xmlns="http://www.w3.org/2000/svg" xmlns:serif="http://www.serif.com/"><g transform="translate(-3508 -1944)"><g fill-rule="nonzero" transform="matrix(.552 0 0 .552 3225.44 1901.7)"><path d="m1290.16 461.148-.28-.274c-12.28-12.164-27.7-20.369-44.61-23.729-4.87-.967-9.61 2.198-10.58 7.074-.97 4.875 2.2 9.613 7.07 10.582 13.43 2.668 25.69 9.191 35.45 18.854l.24.244c9.81 9.802 16.41 22.145 19.1 35.692.85 4.283 4.61 7.248 8.82 7.248.58 0 1.17-.057 1.76-.175 4.88-.969 8.05-5.707 7.08-10.582-3.39-17.052-11.7-32.582-24.05-44.934z"></path><path d="m1327 424.329-.46-.459c-19.56-19.375-44.13-32.443-71.06-37.793-4.86-.968-9.61 2.198-10.58 7.074-.97 4.875 2.2 9.613 7.08 10.582 23.44 4.659 44.85 16.044 61.87 32.91l.43.429c17.11 17.111 28.64 38.656 33.34 62.307.85 4.283 4.61 7.248 8.82 7.248.58 0 1.17-.057 1.76-.175 4.88-.969 8.05-5.706 7.08-10.582-5.4-27.156-18.63-51.89-38.28-71.541z"></path><path d="m1412.13 486.497c-7.24-36.428-24.99-69.605-51.36-95.977l-.61-.604c-26.23-25.986-59.18-43.517-95.3-50.697-4.88-.968-9.61 2.197-10.58 7.072s2.19 9.613 7.07 10.582c32.64 6.489 62.43 22.337 86.15 45.831l.57.574c23.82 23.814 39.86 53.804 46.41 86.728.85 4.283 4.61 7.247 8.82 7.247.58 0 1.17-.057 1.76-.175 4.88-.968 8.04-5.705 7.07-10.581z"></path><path d="m1219.44 498.819h-144.47v-120.527l95.87 63.91c1.53 1.018 3.26 1.478 5.02 1.512 4.96-.003 8.99-4.031 8.99-9 0-1.65-.44-3.196-1.22-4.525l-47.52-95.625c-5.15-10.377-12.98-19.26-22.62-25.687l-226.002-150.673c-12.25-8.167-26.505-12.482-41.226-12.482s-28.977 4.316-41.226 12.482l-225.707 150.473c-9.609 6.405-17.415 15.254-22.575 25.592l-48.113 96.427c-1.821 3.65-.959 8.069 2.1 10.768 1.69 1.491 3.817 2.25 5.956 2.25 1.732 0 3.471-.499 4.99-1.512l95.864-63.91v195.858c0 23.84 9.285 46.259 26.149 63.13 16.865 16.852 39.282 26.132 63.121 26.132h256.718v237.775c0 18.235 14.833 33.07 33.065 33.07h222.836c18.23 0 33.07-14.835 33.07-33.07v-369.298c0-18.235-14.84-33.07-33.07-33.07zm-646.581-156.512c3.761-7.534 9.451-13.984 16.454-18.652l225.708-150.473c9.283-6.188 20.086-9.459 31.242-9.459s21.959 3.271 31.242 9.459l226.005 150.672c7.03 4.685 12.73 11.158 16.49 18.72l32.77 65.947-80.4-53.596c-.85-.859-1.87-1.545-3.01-2.008l-181.871-121.247c-12.25-8.167-26.505-12.482-41.226-12.482s-28.977 4.316-41.226 12.482l-265.185 176.788zm133.961 303.105c-19.034 0-36.932-7.41-50.395-20.86-13.462-13.469-20.876-31.368-20.876-50.401v-207.859l179.471-119.647c9.283-6.188 20.086-9.459 31.242-9.459s21.959 3.271 31.242 9.459l179.466 119.647v132.527h-50.8v-82.787c0-37.25-30.315-67.574-67.58-67.599h-184.66c-37.271.025-67.593 30.35-67.593 67.599v117.154c0 37.274 30.325 67.599 67.599 67.599h184.654c8.651 0 17.076-1.63 24.948-4.766v49.393zm281.348-145.498c-14.159 3.739-24.63 16.655-24.63 31.975v44.158c-7.551 4.421-16.09 6.738-24.948 6.738h-184.654c-27.349 0-49.599-22.25-49.599-49.599v-117.154c0-27.331 22.252-49.581 49.599-49.599h184.648c27.341.018 49.584 22.268 49.584 49.599zm246.342 401.274c0 8.31-6.76 15.07-15.07 15.07h-222.836c-8.307 0-15.065-6.761-15.065-15.07v-246.602c.001-.059.009-.115.009-.174v-73.426c0-.021.004-.043.004-.064v-49.022c0-8.309 6.76-15.068 15.068-15.068h69.36c.08 0 .16-.01.25-.013h153.21c8.31 0 15.07 6.76 15.07 15.069z"></path><path d="m1186.02 535.697h-155.97c-8.83 0-17.13 3.436-23.4 9.688-6.24 6.257-9.672 14.559-9.672 23.377v263.859c0 8.818 3.432 17.12 9.692 23.394 6.25 6.237 14.55 9.672 23.37 9.672h155.98c8.82 0 17.12-3.435 23.39-9.688 6.24-6.258 9.67-14.56 9.67-23.378v-263.859c0-8.818-3.43-17.12-9.69-23.391-6.25-6.238-14.55-9.674-23.37-9.674zm15.06 296.924c0 4.021-1.57 7.81-4.4 10.653-2.85 2.845-6.64 4.412-10.66 4.412h-155.97c-4.03 0-7.81-1.567-10.65-4.396-2.85-2.859-4.42-6.648-4.42-10.669v-263.859c0-4.02 1.57-7.808 4.4-10.652 2.86-2.845 6.64-4.412 10.66-4.412h155.98c4.02 0 7.81 1.567 10.64 4.398 2.85 2.858 4.42 6.646 4.42 10.666z"></path><path d="m1112.13 883.438h-8.2c-4.97 0-9 4.029-9 9s4.03 9 9 9h8.2c4.97 0 9-4.029 9-9s-4.03-9-9-9z"></path><path d="m846.263 413.93c-33.459 0-60.68 27.221-60.68 60.68s27.221 60.68 60.68 60.68 60.68-27.221 60.68-60.68-27.221-60.68-60.68-60.68zm0 103.359c-23.534 0-42.68-19.146-42.68-42.68s19.146-42.68 42.68-42.68 42.68 19.146 42.68 42.68-19.147 42.68-42.68 42.68z"></path><path d="m846.262 443.457c-17.175 0-31.148 13.973-31.148 31.148s13.973 31.148 31.148 31.148 31.148-13.973 31.148-31.148-13.973-31.148-31.148-31.148zm0 44.297c-7.25 0-13.148-5.898-13.148-13.148s5.898-13.148 13.148-13.148 13.148 5.898 13.148 13.148-5.898 13.148-13.148 13.148z"></path><path d="m938.594 381.23c-19.185 0-34.792 15.608-34.792 34.793s15.607 34.792 34.792 34.792 34.793-15.607 34.793-34.792-15.608-34.793-34.793-34.793zm0 51.585c-9.259 0-16.792-7.533-16.792-16.792 0-9.26 7.533-16.793 16.792-16.793 9.26 0 16.793 7.533 16.793 16.793s-7.533 16.792-16.793 16.792z"></path><path d="m1133.68 612.634h-51.25c-4.97 0-9 4.029-9 9v53.386c0 4.971 4.03 9 9 9h51.25c4.97 0 9-4.029 9-9v-53.386c0-4.971-4.03-9-9-9zm-9 53.386h-33.25v-35.386h33.25z"></path><path d="m1107.3 719.705c-19.5 0-35.37 15.865-35.37 35.367s15.87 35.367 35.37 35.367 35.36-15.865 35.36-35.367-15.86-35.367-35.36-35.367zm0 52.734c-9.58 0-17.37-7.791-17.37-17.367s7.79-17.367 17.37-17.367c9.57 0 17.36 7.791 17.36 17.367s-7.79 17.367-17.36 17.367z"></path></g></g></svg>