<!-- icon666.com - MILLIONS vector ICONS FREE --><svg id="Layer_1" enable-background="new 0 0 512 512" viewBox="0 0 512 512" xmlns="http://www.w3.org/2000/svg"><path d="m373.176 206.981h-35.498v-28.803c0-45.038-36.641-81.678-81.679-81.678-45.037 0-81.678 36.641-81.678 81.678v28.803h-35.499c-6.627 0-12 5.373-12 12v164.519c0 6.627 5.373 12 12 12h234.354c6.627 0 12-5.373 12-12v-164.519c0-6.627-5.373-12-12-12zm-174.854-28.803c0-31.804 25.874-57.678 57.678-57.678s57.679 25.875 57.679 57.678v28.803h-115.357zm162.854 193.322h-210.353v-140.519h210.354v140.519zm-105.176-371.5c-141.159 0-256 114.841-256 256s114.841 256 256 256 256-114.841 256-256-114.84-256-256-256zm0 488c-127.925 0-232-104.074-232-232s104.075-232 232-232 232 104.075 232 232-104.075 232-232 232z"></path></svg>