<?xml version="1.0" encoding="UTF-8"?> <svg xmlns="http://www.w3.org/2000/svg" width="241" height="287" viewBox="0 0 241 287" fill="none"> <path d="M240.999 213.376V286.637H16.4136V228.589L117.697 134.912C126.505 126.638 132.376 119.566 135.312 113.694C138.248 107.822 139.715 102.084 139.715 96.4798C139.715 89.5407 137.314 84.2029 132.51 80.4665C127.972 76.4632 121.3 74.4615 112.493 74.4615C103.953 74.4615 95.946 76.7301 88.4731 81.2672C81.0003 85.8043 75.2622 92.2096 71.2589 100.483L0 64.8536C10.6755 44.8371 26.2884 29.0907 46.8387 17.6145C67.389 5.87152 92.2096 0 121.3 0C143.452 0 163.068 3.60298 180.149 10.8089C197.23 18.0149 210.574 28.29 220.182 41.6344C229.79 54.9788 234.594 70.3248 234.594 87.6725C234.594 103.152 231.258 117.697 224.586 131.309C218.18 144.653 205.503 159.865 186.554 176.946L146.521 213.376H240.999Z" fill="#7BF2F3"></path> </svg> 