<?xml version="1.0" encoding="UTF-8"?> <svg xmlns="http://www.w3.org/2000/svg" width="239" height="287" viewBox="0 0 239 287" fill="none"> <path d="M171.558 111.032C193.204 116.376 209.772 126.13 221.262 140.293C233.02 154.189 238.899 171.024 238.899 190.799C238.899 207.634 234.223 223.4 224.87 238.097C215.784 252.528 201.621 264.285 182.381 273.371C163.141 282.457 139.224 287 110.631 287C90.8565 287 71.0818 284.862 51.3072 280.586C31.7998 276.311 14.6974 270.031 0 261.747L32.067 192.001C43.5577 198.682 55.85 203.759 68.944 207.233C82.3053 210.707 95.1321 212.444 107.424 212.444C118.381 212.444 127.199 210.573 133.88 206.832C140.56 203.091 143.901 197.746 143.901 190.799C143.901 177.972 132.811 171.558 110.631 171.558H73.3532V113.437L114.64 71.3491H14.4301V0H223.667V58.1214L171.558 111.032Z" fill="#7BF2F3"></path> </svg> 