<?xml version="1.0" encoding="UTF-8"?> <svg xmlns="http://www.w3.org/2000/svg" width="239" height="287" viewBox="0 0 239 287" fill="none"> <path d="M124.26 99.0069C163.542 99.0069 192.402 107.291 210.841 123.859C229.546 140.16 238.899 161.671 238.899 188.394C238.899 206.03 234.223 222.331 224.87 237.296C215.784 251.993 201.621 264.018 182.381 273.371C163.141 282.457 139.224 287 110.631 287C90.8565 287 71.0818 284.862 51.3072 280.586C31.7998 276.311 14.6974 270.031 0 261.747L32.067 192.001C43.8249 198.682 56.1172 203.759 68.944 207.233C82.0381 210.707 94.7312 212.444 107.024 212.444C117.98 212.444 126.798 210.573 133.479 206.832C140.427 202.824 143.901 197.346 143.901 190.398C143.901 183.717 140.828 178.774 134.681 175.567C128.535 172.093 117.445 170.356 101.412 170.356H20.0419L34.0712 0H220.461V71.3491H111.834L109.829 99.0069H124.26Z" fill="#7BF2F3"></path> </svg> 