<!-- icon666.com - MILLIONS vector ICONS FREE --><svg id="Capa_1" enable-background="new 0 0 512 512" viewBox="0 0 512 512" xmlns="http://www.w3.org/2000/svg"><g><path d="m512 256c0 141.38-114.62 256-256 256-93.73 0-175.7-50.38-220.3-125.54-3.26-5.49-6.32-23.76-9.16-29.51-5.61-11.29 3.626-24.436-.284-36.596-7.94-24.7-18.61-29.368-18.61-56.708 0-3.85-7.556-15.336-7.386-19.146 6.01-136.04 118.21-244.5 255.74-244.5 141.38 0 256 114.62 256 256z" fill="#dd636e" style="fill: rgb(255, 0, 21);"></path><g><path d="m217.91 300.06-68.88 130.61c-2.41 4.58-6.68 7.89-11.72 9.11-1.4.34-2.81.5-4.23.5-3.67 0-7.28-1.11-10.34-3.26l-96.2-67.42c-5.61-11.29-10.4-23.06-14.31-35.22.13-.14.26-.27.39-.4 6.07-6.08 15.8-7.09 23.08-2l90.98 63.78 59.34-112.53c3.83-7.26 11.92-10.82 19.58-9.24 1.63.32 3.24.89 4.78 1.7 8.8 4.65 12.18 15.56 7.53 24.37z" fill="#f9f6f9"></path><path d="m205.604 273.992-65.643 124.456c-2.411 4.585-6.676 7.901-11.703 9.117-1.401.34-2.823.505-4.234.505-3.667 0-7.294-1.123-10.353-3.266l-101.051-70.825c6.068-6.078 15.803-7.088 23.076-1.999l90.986 63.779 59.338-112.527c3.832-7.262 11.919-10.827 19.584-9.24z" fill="#e2dfe2"></path><path d="m252.092 296.099c-31.498-13.868-63.683-25.901-96.553-36.099-8.372-2.598-17.394 1.219-21.337 9.048-8.811 17.501-15.632 35.745-20.464 54.733-2.162 8.495 2.144 17.295 10.167 20.827 31.498 13.868 63.683 25.901 96.553 36.099 8.372 2.598 17.394-1.219 21.337-9.048 8.811-17.501 15.632-35.745 20.464-54.733 2.161-8.495-2.144-17.294-10.167-20.827z" fill="#544f57"></path><path d="m259.21 301.736c-19.676-7.654-39.621-14.618-59.823-20.882-8.375-2.596-17.4 1.216-21.335 9.045-8.818 17.503-15.638 35.747-20.47 54.734-1.38 5.429-.124 10.971 3.049 15.195-12.342-4.801-24.59-9.869-36.726-15.216-8.025-3.534-12.331-12.332-10.168-20.831 4.832-18.986 11.651-37.231 20.47-54.733 3.935-7.829 12.96-11.641 21.335-9.045 32.863 10.199 65.056 22.231 96.549 36.098 2.906 1.278 5.317 3.246 7.119 5.635z" fill="#454045"></path><path d="m455.001 245.179c-52.572-24.174-117.153-16.23-171.97-34.399-12.881 16.326-19.816 34.876-20.806 55.648 53.292 22.25 96.82 70.614 152.356 86.86 19.42-33.813 32.893-69.85 40.42-108.109z" fill="#544f57"></path><path d="m445.152 283.791c-56.477-21.911-116.161-35.216-173.264-55.45 3.015-6.118 6.727-11.974 11.145-17.567 54.821 18.169 119.401 10.232 171.968 34.405-2.583 13.136-5.864 26.01-9.849 38.612z" fill="#454045"></path><path d="m356.812 345.267c-9.508 18.868-31.249 28.07-51.435 21.803-79.23-24.579-156.806-53.583-232.727-87.012-12.408-5.463-21.126-16.152-24.406-28.521-1.829-6.91-1.969-14.343-.101-21.675 11.654-45.774 28.095-89.748 49.326-131.931 9.508-18.868 31.249-28.07 51.427-21.806 79.23 24.58 156.806 53.583 232.727 87.012 19.346 8.513 29.717 29.722 24.515 50.199-5.13 20.155-11.188 39.964-18.191 59.419-8.868 24.733-19.251 48.898-31.135 72.512z" fill="#2b3890"></path><path d="m344.14 360.398c-10.8 8.08-25.13 10.9-38.76 6.67-79.23-24.58-156.8-53.58-232.73-87.01-12.4-5.46-21.12-16.15-24.4-28.52-1.83-6.91-1.97-14.35-.1-21.68 11.65-45.77 28.09-89.75 49.32-131.93 9.51-18.87 31.25-28.07 51.43-21.8 3.66 1.13 7.31 2.28 10.96 3.44-5.21 3.89-9.59 9-12.68 15.13-21.23 42.18-37.67 86.15-49.32 131.93-1.87 7.33-1.73 14.76.1 21.67 3.28 12.37 12 23.06 24.4 28.52 72.43 31.89 146.35 59.75 221.78 83.58z" fill="#242e7a"></path><path d="m335.613 230.213-34.437-12.875-9.834 26.302c-11.878 31.77-47.262 47.896-79.032 36.018l-158.057-59.094c-16.9-6.319-26.58-24.066-22.811-41.711 7.528-35.242 23.868-94.658 55.919-147.489 7.203-11.872 20.484-18.738 34.312-17.471 164.045 15.032 366.501 143.936 366.501 143.936s-.135.409-.407 1.186c-21.767 62.307-90.334 94.311-152.154 71.198z" fill="#f9f6f9"></path><path d="m460.311 203.017c-41.647-25.308-221.406-129.845-370.522-143.505-6.862-.635-13.589.68-19.566 3.566 5.142-10.666 10.832-21.321 17.143-31.715 7.203-11.874 20.487-18.739 34.308-17.471 164.054 15.027 366.502 143.933 366.502 143.933s-.132.406-.405 1.187c-5.987 17.13-15.505 31.978-27.46 44.005z" fill="#e2dfe2"></path><circle cx="133.082" cy="422.26" fill="#544f57" r="38.261"></circle><circle cx="133.082" cy="422.26" fill="#454045" r="17.519"></circle><path d="m35.7 280.29v106.17c-22.68-38.21-35.7-82.81-35.7-130.46 0-3.85.09-7.69.26-11.5 19.6.19 35.44 16.15 35.44 35.79z" fill="#544f57"></path><path d="m414.58 365.791c-1.454 0-2.933-.256-4.375-.795-6.466-2.418-9.749-9.62-7.331-16.086l40.419-108.109c2.418-6.466 9.618-9.75 16.086-7.331 6.466 2.418 9.749 9.62 7.331 16.086l-40.42 108.109c-1.878 5.024-6.645 8.126-11.71 8.126z" fill="#454045"></path></g></g></svg>