<!-- icon666.com - MILLIONS vector ICONS FREE --><svg version="1.1" id="Capa_1" xmlns="http://www.w3.org/2000/svg" xmlns:xlink="http://www.w3.org/1999/xlink" x="0px" y="0px" viewBox="0 0 512 512" style="enable-background:new 0 0 512 512;" xml:space="preserve"><circle style="fill: rgb(255, 0, 0);" cx="256" cy="256" r="256" fill="#00F7FD"></circle><path style="fill: rgb(209, 0, 0);" d="M512,256c0-13.741-1.096-27.224-3.18-40.379L385.44,91.907c-4.3-4.074-10.103-6.574-16.494-6.574 H143.054c-13.255,0-24,10.745-24,24v293.333c0,7.043,3.037,13.373,7.87,17.763l88.742,88.398C228.806,510.907,242.274,512,256,512 C397.385,512,512,397.385,512,256z" fill="#01D8DF"></path><path style="fill: rgb(255, 255, 255);" d="M368.946,426.667H143.054c-13.255,0-24-10.745-24-24V109.333c0-13.255,10.745-24,24-24h225.892 c13.255,0,24,10.745,24,24v293.333C392.946,415.922,382.201,426.667,368.946,426.667z" fill="#FF4E1A"></path><path style="fill: rgb(255, 255, 255);" d="M392.95,109.33v293.34c0,13.25-10.75,24-24,24H256V166.9h-0.83v-17.37H256v-64.2h112.95 C382.2,85.33,392.95,96.08,392.95,109.33z" fill="#DA3406"></path><path style="" d="M369.032,402.581H142.968V109.419h226.065v293.162H369.032z M149.161,396.387h213.677V115.613 H149.161V396.387z" fill="#FEE572"></path><path style="" d="M256,109.42v6.19h106.84v280.78H256v6.19h113.03V109.42H256z" fill="#FED317"></path><rect x="183.05" y="274.58" style="" width="145.89" height="84.47" fill="#E6021F"></rect><rect x="256" y="274.58" style="" width="72.95" height="84.47" fill="#C1021A"></rect><rect x="239.2" y="242.24" style="fill: rgb(0, 0, 0);" width="33.602" height="116.82" fill="#FFFFFF"></rect><rect x="256" y="242.24" style="fill: rgb(0, 0, 0);" width="16.8" height="116.81" fill="#E7E7E8"></rect><path style="fill: rgb(0, 0, 0);" d="M295.355,252.559h-78.71c-8.067,0-14.667-6.6-14.667-14.667v-8.516c0-8.067,6.6-14.667,14.667-14.667 h78.71c8.067,0,14.667,6.6,14.667,14.667v8.516C310.022,245.959,303.422,252.559,295.355,252.559z" fill="#6A686F"></path><path style="" d="M310.02,229.38v8.51c0,8.07-6.6,14.67-14.67,14.67H256v-37.85h39.35 C303.42,214.71,310.02,221.31,310.02,229.38z" fill="#38383A"></path><g><path style="fill: rgb(0, 0, 0);" d="M179.795,194.01v-53.623h36.027v9.138h-25.604v13.821h21.298v8.459h-21.298v22.205H179.795z" fill="#FFFFFF"></path><path style="fill: rgb(0, 0, 0);" d="M223.147,194.01v-53.623h10.423v53.623H223.147z" fill="#FFFFFF"></path><path style="fill: rgb(0, 0, 0);" d="M244.746,194.01v-53.623h23.716c2.466,0,4.744,0.517,6.835,1.548c2.089,1.033,3.89,2.392,5.4,4.078 c1.51,1.688,2.693,3.601,3.549,5.74c0.856,2.141,1.284,4.293,1.284,6.457c0,3.474-0.868,6.635-2.605,9.479 c-1.737,2.845-4.091,4.897-7.062,6.155l12.235,20.165h-11.707l-10.951-17.975h-10.272v17.975L244.746,194.01L244.746,194.01z M255.169,166.897h13.066c0.956,0,1.85-0.227,2.681-0.68c0.831-0.453,1.548-1.069,2.152-1.85c0.605-0.78,1.082-1.7,1.435-2.757 c0.352-1.058,0.529-2.19,0.529-3.399c0-1.258-0.202-2.417-0.604-3.474c-0.404-1.057-0.944-1.975-1.624-2.757 c-0.68-0.78-1.461-1.384-2.341-1.813c-0.881-0.427-1.775-0.642-2.681-0.642h-12.613V166.897z" fill="#FFFFFF"></path></g><g><path style="fill: rgb(0, 0, 0);" d="M275.86,173.84c2.97-1.25,5.33-3.31,7.06-6.15c1.74-2.84,2.61-6,2.61-9.48 c0-2.16-0.43-4.32-1.28-6.46c-0.86-2.14-2.04-4.05-3.55-5.74c-1.51-1.68-3.31-3.04-5.4-4.07c-2.09-1.04-4.37-1.55-6.84-1.55H256 v9.14h11.78c0.91,0,1.8,0.21,2.68,0.64s1.66,1.03,2.34,1.81s1.22,1.7,1.63,2.76c0.4,1.05,0.6,2.21,0.6,3.47 c0,1.21-0.17,2.34-0.53,3.4c-0.35,1.06-0.83,1.98-1.43,2.76c-0.61,0.78-1.32,1.39-2.15,1.85c-0.83,0.45-1.73,0.68-2.69,0.68H256 v9.13h9.44l10.95,17.98h11.71L275.86,173.84z" fill="#E7E7E8"></path><path style="fill: rgb(0, 0, 0);" d="M332.205,184.871v9.139H294.97v-53.623h36.555v9.138h-26.132v12.915h22.583v8.459h-22.583v13.972 H332.205z" fill="#E7E7E8"></path></g><rect x="255.17" y="149.53" style="" width="0.83" height="17.37" fill="#FEDAA9"></rect></svg>