<!-- icon666.com - MILLIONS vector ICONS FREE --><svg id="Capa_1" enable-background="new 0 0 512 512" viewBox="0 0 512 512" xmlns="http://www.w3.org/2000/svg"><g><g><circle cx="256" cy="256" fill="#ff4f19" r="256" style="fill: rgb(255, 0, 0);"></circle></g><g><g><path d="m55.012 414.561c12.437 15.743 26.683 29.99 42.426 42.427l115.566-115.566-42.426-42.427z" fill="#132f3b"></path></g><g><path d="m170.579 298.995-115.567 115.566c6.219 7.872 12.884 15.374 19.968 22.458l116.811-116.811z" fill="#0a181e"></path></g><g><path d="m198.863 369.706-56.569-56.569c-3.905-3.905-10.237-3.905-14.142 0l-28.284 28.284c-3.905 3.905-3.905 10.237 0 14.142l56.569 56.569c3.905 3.905 10.237 3.905 14.142 0l28.284-28.284c3.905-3.905 3.905-10.237 0-14.142z" fill="#ffaa4f"></path></g><g><path d="m128.152 369.706 28.284-28.284c3.905-3.905 10.237-3.905 14.142 0l-28.284-28.284c-3.905-3.905-10.237-3.905-14.142 0l-28.284 28.284c-3.905 3.905-3.905 10.237 0 14.142l28.284 28.284c-3.905-3.905-3.905-10.237 0-14.142z" fill="#ff7247"></path></g><g><path d="m228.915 357.331-74.246-74.246c-3.905-3.905-10.237-3.905-14.142 0l-28.284 28.284c-3.905 3.905-3.905 10.237 0 14.142l74.246 74.246c3.905 3.905 10.237 3.905 14.142 0l28.284-28.284c3.905-3.905 3.905-10.236 0-14.142z" fill="#ffe157"></path></g><g><path d="m140.527 339.654 28.284-28.284c3.905-3.905 10.237-3.905 14.142 0l-28.284-28.284c-3.905-3.905-10.237-3.905-14.142 0l-28.284 28.284c-3.905 3.905-3.905 10.237 0 14.142l28.284 28.284c-3.906-3.905-3.906-10.237 0-14.142z" fill="#ffaa4f"></path></g><g><circle cx="312" cy="200" fill="#132f3b" r="200"></circle></g><g><circle cx="312" cy="200" fill="#4bbaed" r="170"></circle></g><g><path d="m220.076 108.076c61.499-61.498 158.774-65.926 225.438-13.306-4.094-5.187-8.522-10.194-13.306-14.978-66.283-66.283-174.133-66.283-240.416 0s-66.283 174.133 0 240.416c4.785 4.785 9.792 9.212 14.978 13.306-52.62-66.664-48.192-163.939 13.306-225.438z" fill="#39aade"></path></g><g><path d="m318.885 369.772c-.475-13.781-3.229-27.788-6.593-38.668-.451-1.458-1.883-2.378-3.399-2.197l-64.677 7.748c-1.573.188-2.764 1.507-2.788 3.091-.047 3.064-.034 8.463.379 15.083 24.372 11.016 50.823 15.998 77.078 14.943z" fill="#279acf"></path></g><g><path d="m329.546 221.271c.275-5.34.294-10.462.086-15.378-.072-1.697-1.467-3.035-3.165-3.035h-12.059c-.511-7.402-1.586-14.503-3.276-21.43h11.422c2.05 0 3.57-1.925 3.078-3.915-1.346-5.449-2.97-10.586-4.798-15.443-.467-1.241-1.644-2.071-2.97-2.071h-14.142c-1.96-4.357-4.186-8.699-6.707-13.062-1.913-3.312-4.122-6.113-6.53-8.367h13.062c2.604 0 4.122-2.991 2.537-5.056-14.917-19.431-40.414-23.991-62.182-.261-1.866 2.034-.436 5.317 2.324 5.317h13.76c-5.819 4.741-11.381 12.006-16.365 21.43h-14.7c-1.258 0-2.392.746-2.901 1.897-1.716 3.886-3.364 8.049-4.929 12.514-.338.963-.663 1.926-.977 2.887-.666 2.04.871 4.132 3.016 4.132h11.45c-2.323 6.987-4.059 14.136-5.21 21.43h-12.391c-1.606 0-2.952 1.206-3.146 2.8-.636 5.227-.988 10.366-1.103 15.39-.04 1.777 1.39 3.239 3.167 3.239h11.78c-.021 7.033.465 14.18 1.46 21.43h-11.517c-1.927 0-3.411 1.711-3.135 3.618.779 5.381 1.772 10.514 2.894 15.356.333 1.438 1.61 2.456 3.086 2.456h13.018c2.26 8.435 4.872 15.711 7.21 21.43h-11.528c-2.241 0-3.767 2.267-2.935 4.349 2.919 7.307 5.546 12.55 6.937 15.174.611 1.153 1.863 1.812 3.159 1.663l71.831-8.288c1.154-.133 2.148-.89 2.578-1.969.896-2.246 1.755-4.465 2.579-6.659.776-2.067-.759-4.27-2.967-4.27h-11.149c2.575-7.116 4.869-14.296 6.854-21.43h13.265c1.428 0 2.686-.956 3.055-2.335 1.407-5.27 2.594-10.375 3.577-15.321.388-1.955-1.115-3.773-3.108-3.773h-11.743c1.408-7.376 2.422-14.563 3.006-21.43h12.278c1.689-.002 3.077-1.332 3.164-3.019z" fill="#279acf"></path></g><g><path d="m447.055 207.192c1.573.188 2.763 1.507 2.788 3.091.225 14.718-.9 83.18-41.333 83.18-44.13 0-39.487-59.614-29.53-91.822.451-1.458 1.883-2.378 3.399-2.197z" fill="#279acf"></path></g><g><path d="m458.105 178.637c1.391-2.624 4.018-7.868 6.937-15.174.832-2.081-.694-4.349-2.935-4.349h-11.528c2.338-5.719 4.95-12.994 7.21-21.429h12.362c-8.279-21.099-20.919-40.869-37.943-57.893-18.699-18.699-40.708-32.121-64.157-40.269-.874 2.758-1.685 5.594-2.41 8.529-.492 1.99 1.028 3.916 3.078 3.916h11.422c-1.69 6.926-2.766 14.027-3.276 21.429h-12.059c-1.698 0-3.094 1.338-3.166 3.035-.208 4.915-.189 10.037.086 15.378.087 1.687 1.474 3.017 3.164 3.017h12.278c.585 6.866 1.599 14.054 3.006 21.429h-11.743c-1.993 0-3.496 1.818-3.108 3.773.982 4.946 2.169 10.051 3.577 15.321.369 1.38 1.626 2.335 3.055 2.335h13.266c1.985 7.133 4.279 14.313 6.854 21.429h-11.149c-2.208 0-3.743 2.203-2.967 4.27.824 2.194 1.683 4.413 2.579 6.659.431 1.079 1.424 1.836 2.578 1.969l71.831 8.288c1.295.15 2.547-.51 3.158-1.663z" fill="#279acf"></path></g></g></g></svg>