<svg width="81" height="81" viewBox="0 0 81 81" fill="none" xmlns="http://www.w3.org/2000/svg">
<path d="M24.099 32.9L18.499 38.5L36.499 56.5L76.499 16.5L70.899 10.9L36.499 45.3L24.099 32.9ZM72.499 40.5C72.499 58.1 58.099 72.5 40.499 72.5C22.899 72.5 8.49902 58.1 8.49902 40.5C8.49902 22.9 22.899 8.5 40.499 8.5C43.699 8.5 46.499 8.9 49.299 9.7L55.6992 3.3C50.899 1.7 45.699 0.5 40.499 0.5C18.499 0.5 0.499023 18.5 0.499023 40.5C0.499023 62.5 18.499 80.5 40.499 80.5C62.499 80.5 80.499 62.5 80.499 40.5H72.499Z" fill="#F0F0F0"/>
</svg>
